<mxfile host="app.diagrams.net" modified="2022-08-14T18:33:38.308Z" agent="5.0 (Windows NT 10.0; Win64; x64) AppleWebKit/537.36 (KHTML, like Gecko) Chrome/104.0.0.0 Safari/537.36" etag="kvDqOrWLwcbcMaQEqKe4" version="20.2.3" type="github">
  <diagram id="0d7cefc2-ccd6-e077-73ed-a8e48b0cddf6" name="Page-1">
    <mxGraphModel dx="1021" dy="529" grid="1" gridSize="10" guides="1" tooltips="1" connect="1" arrows="1" fold="1" page="1" pageScale="1" pageWidth="1169" pageHeight="827" background="none" math="0" shadow="0">
      <root>
        <mxCell id="0" />
        <mxCell id="1" parent="0" />
        <mxCell id="2" value="z" style="swimlane;shadow=0;align=right;startSize=0;collapsible=0;strokeWidth=3;rounded=0;arcSize=15;swimlaneFillColor=default;fillColor=#f5f5f5;gradientColor=#b3b3b3;strokeColor=#666666;labelBackgroundColor=#E3E3E3;labelBorderColor=none;" parent="1" vertex="1">
          <mxGeometry x="390" y="80" width="1160" height="680" as="geometry" />
        </mxCell>
        <mxCell id="28" value="" style="swimlane;shadow=0;strokeColor=#1D53E7;fillColor=#ffffff;fontColor=#4277BB;align=right;startSize=0;collapsible=0;strokeWidth=3;dashed=1;rounded=1;arcSize=19;" parent="2" vertex="1">
          <mxGeometry x="50" y="40" width="400" height="590" as="geometry" />
        </mxCell>
        <mxCell id="hcvQ9aNWPJz5byK1ZUm7-108" value="" style="sketch=0;html=1;dashed=0;whitespace=wrap;fillColor=#2875E2;strokeColor=#ffffff;points=[[0.005,0.63,0],[0.1,0.2,0],[0.9,0.2,0],[0.5,0,0],[0.995,0.63,0],[0.72,0.99,0],[0.5,1,0],[0.28,0.99,0]];shape=mxgraph.kubernetes.icon;prIcon=c_m;rounded=0;labelBackgroundColor=#E3E3E3;labelBorderColor=none;" vertex="1" parent="28">
          <mxGeometry x="40" y="50" width="90" height="90" as="geometry" />
        </mxCell>
        <mxCell id="hcvQ9aNWPJz5byK1ZUm7-109" value="" style="sketch=0;html=1;dashed=0;whitespace=wrap;fillColor=#2875E2;strokeColor=#ffffff;points=[[0.005,0.63,0],[0.1,0.2,0],[0.9,0.2,0],[0.5,0,0],[0.995,0.63,0],[0.72,0.99,0],[0.5,1,0],[0.28,0.99,0]];shape=mxgraph.kubernetes.icon;prIcon=c_c_m;rounded=1;labelBackgroundColor=#E3E3E3;labelBorderColor=none;" vertex="1" parent="28">
          <mxGeometry x="250" y="50" width="90" height="90" as="geometry" />
        </mxCell>
        <mxCell id="hcvQ9aNWPJz5byK1ZUm7-114" value="" style="rounded=0;orthogonalLoop=1;jettySize=auto;html=1;entryX=0.9;entryY=0.2;entryDx=0;entryDy=0;entryPerimeter=0;" edge="1" parent="28" source="hcvQ9aNWPJz5byK1ZUm7-110" target="hcvQ9aNWPJz5byK1ZUm7-111">
          <mxGeometry relative="1" as="geometry">
            <mxPoint x="165" y="275" as="targetPoint" />
          </mxGeometry>
        </mxCell>
        <mxCell id="hcvQ9aNWPJz5byK1ZUm7-115" style="edgeStyle=none;rounded=0;orthogonalLoop=1;jettySize=auto;html=1;exitX=0.1;exitY=0.2;exitDx=0;exitDy=0;exitPerimeter=0;entryX=0.904;entryY=0.852;entryDx=0;entryDy=0;entryPerimeter=0;" edge="1" parent="28" source="hcvQ9aNWPJz5byK1ZUm7-110" target="hcvQ9aNWPJz5byK1ZUm7-108">
          <mxGeometry relative="1" as="geometry" />
        </mxCell>
        <mxCell id="hcvQ9aNWPJz5byK1ZUm7-116" style="edgeStyle=none;rounded=0;orthogonalLoop=1;jettySize=auto;html=1;exitX=0.5;exitY=0;exitDx=0;exitDy=0;exitPerimeter=0;entryX=0.5;entryY=1;entryDx=0;entryDy=0;entryPerimeter=0;dashed=1;strokeWidth=2;" edge="1" parent="28" source="hcvQ9aNWPJz5byK1ZUm7-110" target="hcvQ9aNWPJz5byK1ZUm7-109">
          <mxGeometry relative="1" as="geometry" />
        </mxCell>
        <mxCell id="hcvQ9aNWPJz5byK1ZUm7-117" style="edgeStyle=none;rounded=0;orthogonalLoop=1;jettySize=auto;html=1;exitX=0.5;exitY=1;exitDx=0;exitDy=0;exitPerimeter=0;entryX=0.5;entryY=0;entryDx=0;entryDy=0;entryPerimeter=0;strokeWidth=1;" edge="1" parent="28" source="hcvQ9aNWPJz5byK1ZUm7-110" target="hcvQ9aNWPJz5byK1ZUm7-112">
          <mxGeometry relative="1" as="geometry" />
        </mxCell>
        <mxCell id="hcvQ9aNWPJz5byK1ZUm7-110" value="" style="sketch=0;html=1;dashed=0;whitespace=wrap;fillColor=#2875E2;strokeColor=#ffffff;points=[[0.005,0.63,0],[0.1,0.2,0],[0.9,0.2,0],[0.5,0,0],[0.995,0.63,0],[0.72,0.99,0],[0.5,1,0],[0.28,0.99,0]];shape=mxgraph.kubernetes.icon;prIcon=api;rounded=1;labelBackgroundColor=#E3E3E3;labelBorderColor=none;" vertex="1" parent="28">
          <mxGeometry x="250" y="230" width="90" height="90" as="geometry" />
        </mxCell>
        <mxCell id="hcvQ9aNWPJz5byK1ZUm7-111" value="" style="sketch=0;html=1;dashed=0;whitespace=wrap;fillColor=#2875E2;strokeColor=#ffffff;points=[[0.005,0.63,0],[0.1,0.2,0],[0.9,0.2,0],[0.5,0,0],[0.995,0.63,0],[0.72,0.99,0],[0.5,1,0],[0.28,0.99,0]];shape=mxgraph.kubernetes.icon;prIcon=etcd;rounded=1;labelBackgroundColor=#E3E3E3;labelBorderColor=none;" vertex="1" parent="28">
          <mxGeometry x="60" y="350" width="92.05" height="90" as="geometry" />
        </mxCell>
        <mxCell id="hcvQ9aNWPJz5byK1ZUm7-112" value="" style="sketch=0;html=1;dashed=0;whitespace=wrap;fillColor=#2875E2;strokeColor=#ffffff;points=[[0.005,0.63,0],[0.1,0.2,0],[0.9,0.2,0],[0.5,0,0],[0.995,0.63,0],[0.72,0.99,0],[0.5,1,0],[0.28,0.99,0]];shape=mxgraph.kubernetes.icon;prIcon=master;rounded=1;labelBackgroundColor=#E3E3E3;labelBorderColor=none;" vertex="1" parent="28">
          <mxGeometry x="250" y="430" width="90" height="90" as="geometry" />
        </mxCell>
        <mxCell id="77" value="" style="swimlane;shadow=0;strokeColor=#4277BB;fillColor=#ffffff;fontColor=#4277BB;align=right;startSize=0;collapsible=0;strokeWidth=3;" parent="2" vertex="1">
          <mxGeometry x="500" y="370" width="137" height="243" as="geometry" />
        </mxCell>
        <mxCell id="hcvQ9aNWPJz5byK1ZUm7-125" value="" style="sketch=0;html=1;dashed=0;whitespace=wrap;fillColor=#2875E2;strokeColor=#ffffff;points=[[0.005,0.63,0],[0.1,0.2,0],[0.9,0.2,0],[0.5,0,0],[0.995,0.63,0],[0.72,0.99,0],[0.5,1,0],[0.28,0.99,0]];shape=mxgraph.kubernetes.icon;prIcon=k_proxy;rounded=1;labelBackgroundColor=#E3E3E3;labelBorderColor=none;" vertex="1" parent="77">
          <mxGeometry x="27.579999999999927" y="140" width="83.34" height="80" as="geometry" />
        </mxCell>
        <mxCell id="hcvQ9aNWPJz5byK1ZUm7-126" value="" style="sketch=0;html=1;dashed=0;whitespace=wrap;fillColor=#2875E2;strokeColor=#ffffff;points=[[0.005,0.63,0],[0.1,0.2,0],[0.9,0.2,0],[0.5,0,0],[0.995,0.63,0],[0.72,0.99,0],[0.5,1,0],[0.28,0.99,0]];shape=mxgraph.kubernetes.icon;prIcon=kubelet;rounded=1;labelBackgroundColor=#E3E3E3;labelBorderColor=none;" vertex="1" parent="77">
          <mxGeometry x="26.079999999999927" y="50" width="83.33" height="80" as="geometry" />
        </mxCell>
        <mxCell id="hcvQ9aNWPJz5byK1ZUm7-127" value="&lt;h2&gt;&lt;font style=&quot;font-size: 20px;&quot;&gt;Node&lt;/font&gt;&lt;/h2&gt;" style="text;html=1;resizable=0;autosize=1;align=center;verticalAlign=middle;points=[];rounded=0;dashed=1;labelBackgroundColor=none;labelBorderColor=none;" vertex="1" parent="77">
          <mxGeometry x="34.40999999999997" y="-7" width="70" height="70" as="geometry" />
        </mxCell>
        <mxCell id="79" value="" style="swimlane;shadow=0;strokeColor=#4277BB;fillColor=#ffffff;fontColor=#4277BB;align=right;startSize=0;collapsible=0;strokeWidth=3;" parent="2" vertex="1">
          <mxGeometry x="693" y="370" width="137" height="243" as="geometry" />
        </mxCell>
        <mxCell id="99" value="" style="group;fontSize=14;fontColor=#4277BB;labelBackgroundColor=#ffffff;" parent="79" vertex="1" connectable="0">
          <mxGeometry x="40" y="368" width="60" height="60" as="geometry" />
        </mxCell>
        <mxCell id="100" value="" style="aspect=fixed;perimeter=ellipsePerimeter;html=1;align=center;shadow=0;dashed=0;image;image=img/lib/ibm/miscellaneous/scalable.svg;rounded=1;labelBackgroundColor=none;strokeColor=#666666;strokeWidth=3;fillColor=#C2952D;gradientColor=none;fontSize=14;fontColor=#4277BB;" parent="99" vertex="1">
          <mxGeometry width="15" height="15" as="geometry" />
        </mxCell>
        <mxCell id="hcvQ9aNWPJz5byK1ZUm7-123" value="" style="sketch=0;html=1;dashed=0;whitespace=wrap;fillColor=#2875E2;strokeColor=#ffffff;points=[[0.005,0.63,0],[0.1,0.2,0],[0.9,0.2,0],[0.5,0,0],[0.995,0.63,0],[0.72,0.99,0],[0.5,1,0],[0.28,0.99,0]];shape=mxgraph.kubernetes.icon;prIcon=k_proxy;rounded=1;labelBackgroundColor=#E3E3E3;labelBorderColor=none;" vertex="1" parent="79">
          <mxGeometry x="27.579999999999927" y="140" width="83.34" height="80" as="geometry" />
        </mxCell>
        <mxCell id="hcvQ9aNWPJz5byK1ZUm7-124" value="" style="sketch=0;html=1;dashed=0;whitespace=wrap;fillColor=#2875E2;strokeColor=#ffffff;points=[[0.005,0.63,0],[0.1,0.2,0],[0.9,0.2,0],[0.5,0,0],[0.995,0.63,0],[0.72,0.99,0],[0.5,1,0],[0.28,0.99,0]];shape=mxgraph.kubernetes.icon;prIcon=kubelet;rounded=1;labelBackgroundColor=#E3E3E3;labelBorderColor=none;" vertex="1" parent="79">
          <mxGeometry x="26.079999999999927" y="50" width="83.33" height="80" as="geometry" />
        </mxCell>
        <mxCell id="hcvQ9aNWPJz5byK1ZUm7-128" value="&lt;h2&gt;&lt;font style=&quot;font-size: 20px;&quot;&gt;Node&lt;/font&gt;&lt;/h2&gt;" style="text;html=1;resizable=0;autosize=1;align=center;verticalAlign=middle;points=[];rounded=0;dashed=1;labelBackgroundColor=none;labelBorderColor=none;" vertex="1" parent="79">
          <mxGeometry x="32.75" y="-7" width="70" height="70" as="geometry" />
        </mxCell>
        <mxCell id="hcvQ9aNWPJz5byK1ZUm7-118" value="" style="swimlane;shadow=0;strokeColor=#4277BB;fillColor=#ffffff;fontColor=#4277BB;align=right;startSize=0;collapsible=0;strokeWidth=3;" vertex="1" parent="2">
          <mxGeometry x="890" y="370" width="137" height="243" as="geometry" />
        </mxCell>
        <mxCell id="hcvQ9aNWPJz5byK1ZUm7-119" value="" style="group;fontSize=14;fontColor=#4277BB;labelBackgroundColor=#ffffff;" vertex="1" connectable="0" parent="hcvQ9aNWPJz5byK1ZUm7-118">
          <mxGeometry x="40" y="368" width="60" height="60" as="geometry" />
        </mxCell>
        <mxCell id="hcvQ9aNWPJz5byK1ZUm7-120" value="" style="aspect=fixed;perimeter=ellipsePerimeter;html=1;align=center;shadow=0;dashed=0;image;image=img/lib/ibm/miscellaneous/scalable.svg;rounded=1;labelBackgroundColor=none;strokeColor=#666666;strokeWidth=3;fillColor=#C2952D;gradientColor=none;fontSize=14;fontColor=#4277BB;" vertex="1" parent="hcvQ9aNWPJz5byK1ZUm7-119">
          <mxGeometry width="15" height="15" as="geometry" />
        </mxCell>
        <mxCell id="hcvQ9aNWPJz5byK1ZUm7-121" value="" style="sketch=0;html=1;dashed=0;whitespace=wrap;fillColor=#2875E2;strokeColor=#ffffff;points=[[0.005,0.63,0],[0.1,0.2,0],[0.9,0.2,0],[0.5,0,0],[0.995,0.63,0],[0.72,0.99,0],[0.5,1,0],[0.28,0.99,0]];shape=mxgraph.kubernetes.icon;prIcon=k_proxy;rounded=1;labelBackgroundColor=#E3E3E3;labelBorderColor=none;" vertex="1" parent="hcvQ9aNWPJz5byK1ZUm7-118">
          <mxGeometry x="28.33" y="140" width="83.34" height="80" as="geometry" />
        </mxCell>
        <mxCell id="hcvQ9aNWPJz5byK1ZUm7-122" value="" style="sketch=0;html=1;dashed=0;whitespace=wrap;fillColor=#2875E2;strokeColor=#ffffff;points=[[0.005,0.63,0],[0.1,0.2,0],[0.9,0.2,0],[0.5,0,0],[0.995,0.63,0],[0.72,0.99,0],[0.5,1,0],[0.28,0.99,0]];shape=mxgraph.kubernetes.icon;prIcon=kubelet;rounded=1;labelBackgroundColor=#E3E3E3;labelBorderColor=none;" vertex="1" parent="hcvQ9aNWPJz5byK1ZUm7-118">
          <mxGeometry x="26.83" y="50" width="83.33" height="80" as="geometry" />
        </mxCell>
        <mxCell id="hcvQ9aNWPJz5byK1ZUm7-129" value="&lt;h2&gt;&lt;font style=&quot;font-size: 20px;&quot;&gt;Node&lt;/font&gt;&lt;/h2&gt;" style="text;html=1;resizable=0;autosize=1;align=center;verticalAlign=middle;points=[];rounded=0;dashed=1;labelBackgroundColor=none;labelBorderColor=none;" vertex="1" parent="hcvQ9aNWPJz5byK1ZUm7-118">
          <mxGeometry x="35" y="-6" width="70" height="70" as="geometry" />
        </mxCell>
        <mxCell id="hcvQ9aNWPJz5byK1ZUm7-133" style="edgeStyle=orthogonalEdgeStyle;rounded=0;orthogonalLoop=1;jettySize=auto;html=1;exitX=0.005;exitY=0.63;exitDx=0;exitDy=0;exitPerimeter=0;entryX=0.995;entryY=0.63;entryDx=0;entryDy=0;entryPerimeter=0;fontSize=20;strokeWidth=1;" edge="1" parent="2" source="hcvQ9aNWPJz5byK1ZUm7-124" target="hcvQ9aNWPJz5byK1ZUm7-110">
          <mxGeometry relative="1" as="geometry">
            <Array as="points">
              <mxPoint x="660" y="470" />
              <mxPoint x="660" y="327" />
            </Array>
          </mxGeometry>
        </mxCell>
        <mxCell id="hcvQ9aNWPJz5byK1ZUm7-135" style="edgeStyle=orthogonalEdgeStyle;rounded=0;orthogonalLoop=1;jettySize=auto;html=1;exitX=0.005;exitY=0.63;exitDx=0;exitDy=0;exitPerimeter=0;entryX=0.995;entryY=0.63;entryDx=0;entryDy=0;entryPerimeter=0;fontSize=20;strokeWidth=1;" edge="1" parent="2" source="hcvQ9aNWPJz5byK1ZUm7-123" target="hcvQ9aNWPJz5byK1ZUm7-110">
          <mxGeometry relative="1" as="geometry">
            <Array as="points">
              <mxPoint x="660" y="560" />
              <mxPoint x="660" y="327" />
            </Array>
          </mxGeometry>
        </mxCell>
        <mxCell id="hcvQ9aNWPJz5byK1ZUm7-136" style="edgeStyle=orthogonalEdgeStyle;rounded=0;orthogonalLoop=1;jettySize=auto;html=1;exitX=0.005;exitY=0.63;exitDx=0;exitDy=0;exitPerimeter=0;entryX=0.885;entryY=0.87;entryDx=0;entryDy=0;entryPerimeter=0;fontSize=20;strokeWidth=1;" edge="1" parent="2" source="hcvQ9aNWPJz5byK1ZUm7-126" target="hcvQ9aNWPJz5byK1ZUm7-110">
          <mxGeometry relative="1" as="geometry">
            <Array as="points">
              <mxPoint x="480" y="470" />
              <mxPoint x="480" y="348" />
            </Array>
          </mxGeometry>
        </mxCell>
        <mxCell id="hcvQ9aNWPJz5byK1ZUm7-139" style="edgeStyle=orthogonalEdgeStyle;rounded=0;orthogonalLoop=1;jettySize=auto;html=1;exitX=0.005;exitY=0.63;exitDx=0;exitDy=0;exitPerimeter=0;entryX=0.922;entryY=0.356;entryDx=0;entryDy=0;entryPerimeter=0;fontSize=20;strokeWidth=1;" edge="1" parent="2" source="hcvQ9aNWPJz5byK1ZUm7-122" target="hcvQ9aNWPJz5byK1ZUm7-110">
          <mxGeometry relative="1" as="geometry">
            <Array as="points">
              <mxPoint x="860" y="470" />
              <mxPoint x="860" y="302" />
            </Array>
          </mxGeometry>
        </mxCell>
        <mxCell id="hcvQ9aNWPJz5byK1ZUm7-141" style="edgeStyle=orthogonalEdgeStyle;rounded=0;orthogonalLoop=1;jettySize=auto;html=1;exitX=0.005;exitY=0.63;exitDx=0;exitDy=0;exitPerimeter=0;entryX=0.93;entryY=0.356;entryDx=0;entryDy=0;entryPerimeter=0;fontSize=20;strokeWidth=1;" edge="1" parent="2" source="hcvQ9aNWPJz5byK1ZUm7-121" target="hcvQ9aNWPJz5byK1ZUm7-110">
          <mxGeometry relative="1" as="geometry">
            <Array as="points">
              <mxPoint x="860" y="560" />
              <mxPoint x="860" y="302" />
            </Array>
          </mxGeometry>
        </mxCell>
      </root>
    </mxGraphModel>
  </diagram>
</mxfile>
